<svg width="90" height="65" viewBox="0 0 90 65" fill="none" xmlns="http://www.w3.org/2000/svg">
<g filter="url(#filter0_i_1494_226)">
<path d="M89.1177 36.2695C88.3736 36.2623 87.4815 36.0953 86.7389 35.9298C81.9915 34.6263 78.4624 29.8699 78.5159 24.3613L67.3547 24.253C63.1895 24.2126 59.5959 26.5389 57.6237 30.1383C56.7468 28.3975 56.1722 26.3474 56.1936 24.1448L45.0324 24.0365C38.9302 23.9774 33.9721 28.9636 33.7599 35.416L33.7568 35.7325L33.312 35.7282C32.5679 35.721 31.8653 35.7318 31.0366 35.4424C26.468 34.1362 22.6609 29.3287 22.7143 23.8201L11.5532 23.7118C7.388 23.6714 3.79436 25.9977 1.82218 29.5971C0.913189 31.1623 0.300473 33.0426 0.280603 35.0913L0.163089 47.2077L11.3242 47.3159L11.4387 35.5117L11.5532 23.7074C11.5135 27.8005 12.5187 31.7453 14.27 35.0643C14.27 35.0643 14.3473 35.2365 14.4166 35.3823C15.8773 38.228 17.9369 40.609 20.3005 42.5226C21.0384 43.1585 21.7779 43.6405 22.5174 44.1181C25.625 46.0389 29.0355 47.1711 32.904 47.3669L44.8092 47.4824L45.0381 23.8783C44.9969 28.1252 46.0006 32.2283 47.8999 35.7114C48.6303 37.1343 49.5118 38.4047 50.3948 39.5125C51.426 40.7799 52.4545 41.8935 53.7839 42.8517C54.5218 43.4876 55.2613 43.9696 56.0008 44.4473C59.1084 46.368 62.6685 47.5017 66.3874 47.6961L67.1314 47.7033L67.3604 24.0992C67.3207 28.1922 68.3259 32.1371 70.0772 35.4561C70.0772 35.4561 70.0756 35.6143 70.2237 35.774C71.6844 38.6197 73.7441 41.0008 76.1076 42.9143C76.8456 43.5502 77.5851 44.0323 78.3246 44.5099C81.4322 46.4306 84.8427 47.5629 88.7111 47.7587L89.4552 47.7659L89.5666 36.2782L89.1218 36.2739L89.1177 36.2695Z" fill="white"/>
<path d="M22.8719 23.8208L34.0331 23.929C34.0743 19.6821 33.1108 15.7245 31.3595 12.4011C31.3595 12.4011 31.241 12.1889 31.1309 11.968C29.2315 8.48932 26.4716 5.44197 23.22 3.36593C19.9684 1.28989 16.2587 0.150314 12.239 0.111328L12.1261 11.7573C13.1694 11.7674 13.9124 11.8889 14.9821 12.1895C19.7279 13.6513 23.075 18.318 23.0215 23.8266L22.8719 23.8252L22.8719 23.8208Z" fill="white"/>
</g>
<path d="M0.9225 59.4945L0.878595 64.0213L7.50145e-06 64.0128L0.10498 53.1895L3.1591 53.2191C3.63597 53.2321 4.0829 53.3117 4.50408 53.4581C4.92526 53.6044 5.29145 53.813 5.60677 54.088C5.91796 54.3588 6.16159 54.6917 6.33771 55.0825C6.5138 55.4776 6.6015 55.9261 6.59659 56.4323C6.59302 56.8005 6.53542 57.1305 6.42795 57.4265C6.32047 57.7226 6.16722 57.993 5.9766 58.2339C5.78602 58.4705 5.55807 58.6775 5.2969 58.8591C5.03572 59.0407 4.74553 59.1927 4.43468 59.3194L6.86646 63.9831L6.85716 64.0793L5.92837 64.0703L3.60009 59.5205L0.9225 59.4945ZM3.29373 58.7518C3.63266 58.7509 3.94286 58.6912 4.23686 58.5768C4.52668 58.4625 4.78351 58.2976 5.00305 58.0947C5.21841 57.8918 5.38811 57.6508 5.51219 57.3674C5.63628 57.0841 5.70212 56.7668 5.70549 56.4195C5.70914 56.043 5.64549 55.7035 5.51867 55.4051C5.39186 55.1068 5.21021 54.854 4.97795 54.6426C4.75402 54.4354 4.48358 54.2779 4.16667 54.1661C3.85395 54.0543 3.51562 53.9924 3.15168 53.9847L0.971955 53.9636L0.925737 58.7288L3.28955 58.7518L3.29373 58.7518Z" fill="white"/>
<path d="M10.0503 58.9214L10.0076 63.3227L15.5176 63.3761L15.5099 64.1627L9.1172 64.1007L9.22217 53.2773L15.5773 53.339L15.5696 54.1255L10.0973 54.0724L10.0579 58.139L14.8399 58.1854L14.8323 58.9678L10.0503 58.9214Z" fill="white"/>
<path d="M19.4044 61.1842L18.4087 64.1913L17.5176 64.1827L21.1411 53.3935L21.9527 53.4014L25.3328 64.2585L24.4417 64.2499L23.5129 61.2241L19.4086 61.1843L19.4044 61.1842ZM23.2696 60.4184L21.5256 54.7361L19.6549 60.3833L23.2696 60.4184Z" fill="white"/>
<path d="M33.9373 63.5539L33.9297 64.3405L27.5286 64.2784L27.6335 53.4551L28.5247 53.4637L28.4273 63.5005L33.9373 63.5539Z" fill="white"/>
<path d="M48.7786 59.7653L51.164 53.6838L52.3312 53.6951L52.2263 64.5184L51.356 64.51L51.4025 59.7154L51.5073 54.9507L49.0447 61.2323L48.4632 61.2267L46.3059 55.0132L46.3193 59.6661L46.2728 64.4607L45.4026 64.4522L45.5076 53.6289L46.6539 53.64L48.7744 59.7652L48.7786 59.7653Z" fill="white"/>
<path d="M55.7319 59.3648L55.6893 63.7661L61.1992 63.8195L61.1916 64.606L54.7988 64.544L54.9038 53.7207L61.2589 53.7823L61.2513 54.5689L55.779 54.5158L55.7395 58.5824L60.5215 58.6288L60.5139 59.4111L55.7319 59.3648Z" fill="white"/>
<path d="M63.8705 53.8072L66.4812 53.8326C66.9037 53.8408 67.2964 53.9032 67.6636 54.0114C68.0307 54.1196 68.3682 54.2693 68.676 54.4564C69.0463 54.6733 69.3701 54.9401 69.6515 55.2566C69.933 55.5732 70.1597 55.9268 70.3358 56.3135C70.5039 56.6708 70.6341 57.057 70.7179 57.4678C70.8018 57.8787 70.8479 58.3101 70.8477 58.7536L70.8375 59.8079C70.8333 60.243 70.7832 60.6651 70.6914 61.0701C70.5996 61.4751 70.4662 61.8545 70.2996 62.2044C70.1288 62.5584 69.9122 62.8868 69.6583 63.1856C69.4044 63.4844 69.1131 63.741 68.7973 63.9513C68.4688 64.1699 68.0989 64.3421 67.6919 64.4594C67.2849 64.581 66.845 64.6437 66.3721 64.6475L63.7615 64.6222L63.8665 53.7988L63.8705 53.8072ZM64.6641 63.8736L66.3795 63.8902C66.7728 63.8899 67.129 63.8347 67.4605 63.7333C67.7879 63.6319 68.0822 63.4841 68.3434 63.2984C68.613 63.1085 68.8495 62.8807 69.0571 62.6149C69.2647 62.3492 69.4307 62.0579 69.5636 61.737C69.6835 61.4494 69.7785 61.1449 69.8444 60.8192C69.9103 60.4935 69.9471 60.1549 69.9547 59.8077L69.9651 58.7283C69.9643 58.381 69.9299 58.0418 69.8662 57.7106C69.8025 57.3794 69.7093 57.0605 69.5909 56.7623C69.4396 56.401 69.242 56.0644 68.9981 55.7649C68.7541 55.4655 68.4594 55.22 68.1223 55.0326C67.8976 54.9007 67.6434 54.7978 67.3679 54.724C67.0925 54.6502 66.7958 54.6097 66.4779 54.5982L64.7626 54.5816L64.6725 63.8737L64.6641 63.8736Z" fill="white"/>
<path d="M79.3876 53.9573L79.3798 54.7605L76.6646 54.7342L76.5751 63.9594L79.2903 63.9857L79.2826 64.7806L73.0154 64.7198L73.0231 63.9249L75.6547 63.9504L75.7441 54.7253L73.1126 54.6998L73.1204 53.8965L79.3876 53.9573Z" fill="white"/>
<path d="M83.3612 61.8053L82.3655 64.8124L81.4744 64.8038L85.0979 54.0146L85.9095 54.0225L89.2896 64.8796L88.3985 64.871L87.4696 61.8452L83.3654 61.8054L83.3612 61.8053ZM87.2264 61.0395L85.4823 55.3572L83.6117 61.0044L87.2264 61.0395Z" fill="white"/>
<defs>
<filter id="filter0_i_1494_226" x="0.163086" y="0.111328" width="90.8117" height="49.0625" filterUnits="userSpaceOnUse" color-interpolation-filters="sRGB">
<feFlood flood-opacity="0" result="BackgroundImageFix"/>
<feBlend mode="normal" in="SourceGraphic" in2="BackgroundImageFix" result="shape"/>
<feColorMatrix in="SourceAlpha" type="matrix" values="0 0 0 0 0 0 0 0 0 0 0 0 0 0 0 0 0 0 127 0" result="hardAlpha"/>
<feOffset dx="1.40817" dy="1.40817"/>
<feGaussianBlur stdDeviation="1.40817"/>
<feComposite in2="hardAlpha" operator="arithmetic" k2="-1" k3="1"/>
<feColorMatrix type="matrix" values="0 0 0 0 0 0 0 0 0 0 0 0 0 0 0 0 0 0 0.13 0"/>
<feBlend mode="normal" in2="shape" result="effect1_innerShadow_1494_226"/>
</filter>
</defs>
</svg>
